<svg width="600" height="600" viewBox="0 0 600 600" fill="none" xmlns="http://www.w3.org/2000/svg">
<g clip-path="url(#clip0_98_7373)">
<rect width="600" height="600" rx="150" fill="white"/>
<rect width="600" height="600" rx="150" fill="#647C72"/>
<path d="M250 200C250 227.614 227.614 250 200 250C172.386 250 150 227.614 150 200C150 172.386 172.386 150 200 150C227.614 150 250 172.386 250 200Z" fill="#F2F5F3"/>
<path d="M400 250C372.386 250 350 227.614 350 200C350 227.614 327.614 250 300 250C327.614 250 350 272.386 350 300C350 272.386 372.386 250 400 250Z" fill="#F2F5F3"/>
<path d="M350 300C350 272.386 372.386 250 400 250L350 300Z" fill="#F2F5F3"/>
<path d="M250 300C250 327.614 227.614 350 200 350L250 300Z" fill="#F2F5F3"/>
<path fill-rule="evenodd" clip-rule="evenodd" d="M300 350C272.386 350 250 327.614 250 300L300 250C327.614 250 350 272.386 350 300L300 350Z" fill="#F2F5F3"/>
<path d="M300 350C272.386 350 250 327.614 250 300C250 327.614 227.614 350 200 350C227.614 350 250 372.386 250 400C250 372.386 272.386 350 300 350Z" fill="#F2F5F3"/>
<path fill-rule="evenodd" clip-rule="evenodd" d="M250 400C250 372.386 227.614 350 200 350L150 400L200 450L250 400Z" fill="#F2F5F3"/>
<path fill-rule="evenodd" clip-rule="evenodd" d="M250 400C250 372.386 272.386 350 300 350L250 400Z" fill="#F2F5F3"/>
<path fill-rule="evenodd" clip-rule="evenodd" d="M400 450L350 400L400 350L450 400L400 450Z" fill="#F2F5F3"/>
<path fill-rule="evenodd" clip-rule="evenodd" d="M350 200C350 227.614 327.614 250 300 250L350 200Z" fill="#F2F5F3"/>
<path fill-rule="evenodd" clip-rule="evenodd" d="M450 200L400 150L350 200C350 227.614 372.386 250 400 250L450 200Z" fill="#F2F5F3"/>
</g>
<defs>
<clipPath id="clip0_98_7373">
<rect width="600" height="600" rx="150" fill="white"/>
</clipPath>
</defs>
</svg>
