<svg width="360" height="360" viewBox="0 0 360 360" fill="none" xmlns="http://www.w3.org/2000/svg">
<circle cx="180" cy="180" r="59.5" stroke="#799689" stroke-opacity="0.3"/>
<circle cx="180" cy="180" r="99.5" stroke="#799689" stroke-opacity="0.2"/>
<circle cx="180" cy="180" r="139.5" stroke="#799689" stroke-opacity="0.1"/>
<circle cx="180" cy="180" r="179.5" stroke="#799689" stroke-opacity="0.05"/>
<path opacity="0.2" d="M204 180C204 184.747 202.592 189.387 199.955 193.334C197.318 197.28 193.57 200.357 189.184 202.173C184.799 203.99 179.973 204.465 175.318 203.539C170.662 202.613 166.386 200.327 163.029 196.971C159.673 193.614 157.387 189.338 156.461 184.682C155.535 180.027 156.01 175.201 157.827 170.816C159.643 166.43 162.72 162.682 166.666 160.045C170.613 157.408 175.253 156 180 156C186.365 156 192.47 158.529 196.971 163.029C201.471 167.53 204 173.635 204 180Z" fill="#647C72"/>
<path d="M180 154C174.858 154 169.831 155.525 165.555 158.382C161.28 161.239 157.947 165.299 155.979 170.05C154.011 174.801 153.496 180.029 154.5 185.072C155.503 190.116 157.979 194.749 161.615 198.385C165.251 202.021 169.884 204.497 174.928 205.5C179.971 206.504 185.199 205.989 189.95 204.021C194.701 202.053 198.761 198.721 201.618 194.445C204.475 190.169 206 185.142 206 180C205.993 173.107 203.251 166.498 198.377 161.623C193.502 156.749 186.893 154.007 180 154ZM180 202C175.649 202 171.395 200.71 167.777 198.292C164.16 195.875 161.34 192.439 159.675 188.419C158.01 184.399 157.574 179.976 158.423 175.708C159.272 171.44 161.367 167.52 164.444 164.444C167.52 161.367 171.44 159.272 175.708 158.423C179.976 157.574 184.399 158.01 188.419 159.675C192.439 161.34 195.875 164.16 198.292 167.777C200.71 171.395 202 175.649 202 180C201.993 185.833 199.673 191.425 195.549 195.549C191.425 199.673 185.833 201.993 180 202ZM190 185C190 186.857 189.263 188.637 187.95 189.95C186.637 191.263 184.857 192 183 192H182V194C182 194.53 181.789 195.039 181.414 195.414C181.039 195.789 180.53 196 180 196C179.47 196 178.961 195.789 178.586 195.414C178.211 195.039 178 194.53 178 194V192H174C173.47 192 172.961 191.789 172.586 191.414C172.211 191.039 172 190.53 172 190C172 189.47 172.211 188.961 172.586 188.586C172.961 188.211 173.47 188 174 188H183C183.796 188 184.559 187.684 185.121 187.121C185.684 186.559 186 185.796 186 185C186 184.204 185.684 183.441 185.121 182.879C184.559 182.316 183.796 182 183 182H177C175.143 182 173.363 181.263 172.05 179.95C170.738 178.637 170 176.857 170 175C170 173.143 170.738 171.363 172.05 170.05C173.363 168.737 175.143 168 177 168H178V166C178 165.47 178.211 164.961 178.586 164.586C178.961 164.211 179.47 164 180 164C180.53 164 181.039 164.211 181.414 164.586C181.789 164.961 182 165.47 182 166V168H186C186.53 168 187.039 168.211 187.414 168.586C187.789 168.961 188 169.47 188 170C188 170.53 187.789 171.039 187.414 171.414C187.039 171.789 186.53 172 186 172H177C176.204 172 175.441 172.316 174.879 172.879C174.316 173.441 174 174.204 174 175C174 175.796 174.316 176.559 174.879 177.121C175.441 177.684 176.204 178 177 178H183C184.857 178 186.637 178.737 187.95 180.05C189.263 181.363 190 183.143 190 185Z" fill="#647C72"/>
</svg>
